<?xml version="1.0" encoding="iso-8859-1"?>
<!-- Generator: Adobe Illustrator 19.0.0, SVG Export Plug-In . SVG Version: 6.00 Build 0)  -->
<svg version="1.1" id="Capa_1" xmlns="http://www.w3.org/2000/svg" xmlns:xlink="http://www.w3.org/1999/xlink" x="0px" y="0px"
	 viewBox="0 0 512 512" style="enable-background:new 0 0 512 512;" xml:space="preserve">
<g>
	<rect x="247.322" y="147.525" style="fill:#A4C2F7;" width="190.915" height="355.797"/>
	<rect x="73.763" y="147.525" style="fill:#FFFFFF;" width="190.915" height="355.797"/>
	<rect x="99.797" y="147.525" style="fill:#E3E7F2;" width="312.407" height="355.797"/>
	<g>
		<path style="fill:#428DFF;" d="M255.636,347.119L255.636,347.119c-2.301,0-4.509-0.914-6.135-2.543l-86.593-86.602
			c-3.389-3.389-3.389-8.883,0-12.271c3.389-3.389,8.883-3.389,12.271,0l80.457,80.466l80.83-80.822
			c3.389-3.389,8.883-3.389,12.271,0c3.389,3.389,3.389,8.883,0,12.271l-86.966,86.957
			C260.144,346.204,257.937,347.119,255.636,347.119L255.636,347.119z"/>
		<path style="fill:#428DFF;" d="M256,347.119c-2.302,0.001-4.51-0.913-6.138-2.54c-1.628-1.628-2.542-3.836-2.54-6.138V8.678
			C247.322,3.885,251.207,0,256,0c4.793,0,8.678,3.885,8.678,8.678v329.763c0.001,2.302-0.913,4.51-2.54,6.138
			C260.51,346.206,258.302,347.12,256,347.119L256,347.119z"/>
		<path style="fill:#428DFF;" d="M438.237,512H73.763c-2.302,0.001-4.51-0.913-6.138-2.54c-1.628-1.628-2.542-3.836-2.54-6.138
			V147.525c-0.001-2.302,0.913-4.51,2.54-6.138c1.628-1.628,3.836-2.542,6.138-2.54h121.492c4.793,0,8.678,3.885,8.678,8.678
			c0,4.793-3.885,8.678-8.678,8.678H82.441v338.441h347.119V156.203H316.746c-4.793,0-8.678-3.885-8.678-8.678
			c0-4.793,3.885-8.678,8.678-8.678h121.492c2.302-0.001,4.51,0.913,6.138,2.54c1.628,1.628,2.542,3.836,2.54,6.138v355.797
			c0.001,2.302-0.913,4.51-2.54,6.138C442.747,511.087,440.539,512.001,438.237,512z"/>
	</g>
</g>
<g>
</g>
<g>
</g>
<g>
</g>
<g>
</g>
<g>
</g>
<g>
</g>
<g>
</g>
<g>
</g>
<g>
</g>
<g>
</g>
<g>
</g>
<g>
</g>
<g>
</g>
<g>
</g>
<g>
</g>
</svg>
